<?xml version="1.0" encoding="utf-8"?>
<!-- Generator: Adobe Illustrator 18.0.0, SVG Export Plug-In . SVG Version: 6.00 Build 0)  -->
<!DOCTYPE svg PUBLIC "-//W3C//DTD SVG 1.1//EN" "http://www.w3.org/Graphics/SVG/1.1/DTD/svg11.dtd">
<svg version="1.1" id="Layer_1" xmlns="http://www.w3.org/2000/svg" xmlns:xlink="http://www.w3.org/1999/xlink" x="0px" y="0px"
	 width="53.6px" height="53.6px" viewBox="0 0 53.6 53.6" enable-background="new 0 0 53.6 53.6" xml:space="preserve">
<path fill="#FFFFFF" d="M53.6,43.3c0,5.7-4.6,10.3-10.3,10.3h-33C4.6,53.6,0,49,0,43.3v-33C0,4.6,4.6,0,10.3,0h33
	C49,0,53.6,4.6,53.6,10.3V43.3z M8.6,20.8c7.3,20.6,24.6,24.7,27.2,24.9c6.4,0.7,10.4-3.3,11.2-9.3c0,0-6.4-4.1-9.6-4.8l-5.1,5.1
	c0,0-2.7,0.1-8.7-5.9c-6-6-5.9-8.7-5.9-8.7l4.4-4.4c-0.7-4.4-3.3-11.4-8.3-9.8C8.9,9.6,7.1,16.5,8.6,20.8z"/>
</svg>
