<?xml version="1.0" encoding="utf-8"?>
<!-- Generator: Adobe Illustrator 18.0.0, SVG Export Plug-In . SVG Version: 6.00 Build 0)  -->
<!DOCTYPE svg PUBLIC "-//W3C//DTD SVG 1.1//EN" "http://www.w3.org/Graphics/SVG/1.1/DTD/svg11.dtd">
<svg version="1.1" id="Layer_1" xmlns="http://www.w3.org/2000/svg" xmlns:xlink="http://www.w3.org/1999/xlink" x="0px" y="0px"
	 width="350px" height="750px" viewBox="0 0 350 750" enable-background="new 0 0 350 750" xml:space="preserve">
<g>
	<g>
		<circle fill="#FFFFFF" cx="75" cy="475" r="74"/>
		<path fill="#34526F" d="M75,550c-41.4,0-75-33.6-75-75c0-41.4,33.6-75,75-75s75,33.6,75,75C150,516.4,116.4,550,75,550z M75,402
			c-40.3,0-73,32.8-73,73s32.8,73,73,73s73-32.8,73-73S115.3,402,75,402z"/>
	</g>
	<g>
		<g>
			<path fill="#34526F" d="M100.2,450.7l-20.7-7.2c-0.2,0.1-0.4,0.3-0.6,0.4c-0.9,0.3-2-0.1-2.4-0.9c-0.4-0.8,0-1.7,1-2
				c0.9-0.3,2,0.1,2.4,0.9c0.1,0.2,0.1,0.4,0.1,0.6l21.9,7.7l23.9-9.4l-46.7-15l-50.6,18.8l46.8,16.1L100.2,450.7z"/>
		</g>
		<g>
			<path fill="#34526F" d="M100.4,454.8l0-3.1l-25.1,9.9l-26.1-9V469h0.2c1.7,7.5,10.2,12.3,25,12.3c14.8,0,30.7-4.8,32.4-12.3h0.2
				v-19.9l-5.2,2.1l0,3.4c0.4,0.3,1,0.8,1,1.5c0,0,2,5.2,0.8,6.6c-2.3,2.6-4.7,0.7-4.7,0.7l0.8-7.5C99.7,455.4,100,455,100.4,454.8z
				"/>
		</g>
		<g>
			<path fill="#34526F" d="M119.5,475.2c-0.7-0.6-6.3-1.8-13-3.2c-3.6,5.1-15.7,9.4-29.3,10.1c-14.5,0.7-25.2-3.6-27.8-10.6
				l-11.9,2.2c-6.4,1.1-2.7,2.1-1.6,2.3c0.8,0.6,1.4,1.6,1.4,2.8c0,1.5-0.8,2.8-2,3.1c-3.1-0.3-1,1.8-0.4,2.4c0,0-0.1,0-0.1,0
				c0.1,0,0.1,0,0.2,0.1c0.1,0.1,0.1,0.1,0.1,0.1s0.1,0,0.2,0.1c0.9,0.6,1.4,1.9,1,3.3c-0.4,1.7-1.8,2.9-3.2,2.8c0.1,0,0.2,0,0.2,0
				c1.5,0.2,3-1,3.5-2.8c0.3-1.3-0.1-2.6-0.9-3.2c5.4,1.4,35.7,9.3,36.8,9.5c2.5,0.5,7.1-0.5,7.1-0.5l37.4-6
				c6.5,3.3,0.1,6.5,0.1,6.5l-40.4,6.3c-2.5,0.3-2.5,0.3-4.3,0c-1.3-0.2-28.4-7.3-36.8-9c0,0-3.7-1.1-4.1-1
				c-1.3,0.6-0.9,1.1-0.9,1.1l-3.6,1.9c-6,1.9-0.4,3.4-0.4,3.4l1.3,0.2c1.5,1.1,2.6,3.3,2.6,5.8c0,2.6-1.2,4.9-2.8,5.9l-0.9-0.1
				c-5.4,1.1,0.2,3.5,0.2,3.5l44.2,5.5c-2.7,3.1-4.7,6.1-4.7,6.1l3.4-0.9l1.3,1.4c0,0,1.8-2.9,4.3-6.1l4.4,0.5
				c6.5,0.6,12.7-2.7,12.7-2.7l18.6-8.2c10.6-4.8,6.9-11.3,6.9-11.3c9.5-4.6,1.4-10.5,1.4-10.5C125.9,480.6,122,477.1,119.5,475.2z
				 M82.8,515.3l-4.3-0.5c1.5-1.7,3.1-3.1,4.5-3.9l-3.2-0.4c-1.6,0.5-3.5,2-5.3,3.8l-45.9-5.5c1.7-1,2.9-3.3,2.9-6
				c0-2.4-1-4.6-2.4-5.7l39.5,4.8c3.5,1,6.3,1.4,8.1,1c1.6-0.3,6.4,0.8,6.4,0.8C93.1,509.1,82.8,515.3,82.8,515.3z M117.7,484.1
				l-42.4,7.6c0,0-0.7,0.2-4.1-0.8L35.8,482c-0.1,0-0.2,0-0.3,0c1.2-0.3,2.1-1.6,2.1-3.2c0-1.1-0.5-2.1-1.2-2.7
				c4.1,1,34.4,8.4,35.2,8.6c3.2,0.8,6.9-0.2,6.9-0.2l38.9-7.3C124.5,480,117.7,484.1,117.7,484.1z"/>
		</g>
	</g>
</g>
<g>
	<g>
		<circle fill="#FFFFFF" cx="75" cy="75" r="74"/>
		<path fill="#34526F" d="M75,150c-41.4,0-75-33.6-75-75S33.6,0,75,0s75,33.6,75,75S116.4,150,75,150z M75,2C34.7,2,2,34.7,2,75
			s32.8,73,73,73s73-32.8,73-73S115.3,2,75,2z"/>
	</g>
	<g>
		<path fill="#34526F" d="M102.8,49.2l4.2-4.5c2.5-2.7,6.3-3.3,8.4-1.3l6.1,5.7c2.1,2,1.8,5.7-0.7,8.4l-4.2,4.5
			c-0.5,0.5-1.1,0.7-1.4,0.5l-12.8-11.9C102.1,50.4,102.3,49.8,102.8,49.2z M113.1,64.9L100.3,53c-0.3-0.2-0.9,0-1.4,0.5L74.3,79.9
			l0,0l-6.7,20.9l20.4-8.2l0,0l24.6-26.4C113.2,65.7,113.3,65.1,113.1,64.9z M101.9,58l1,0.9L82.7,80.8l-1-0.9L101.9,58z M86.7,91.1
			c-0.2,0.2-0.4,0.4-0.7,0.5l0,0l-10.3,4.2l-3.5-3.2l3.4-10.6l0,0c0.1-0.3,0.2-0.5,0.4-0.7c0.9-0.9,2.4-0.9,3.4,0
			c0.9,0.8,1.1,2.2,0.4,3.1c0.9-0.7,2.2-0.7,3.2,0.2c0.9,0.8,1.1,2.2,0.4,3.1c0.9-0.7,2.2-0.7,3.2,0.2
			C87.5,88.6,87.6,90.1,86.7,91.1z M87.7,85.4l-1-0.9l20.2-21.9l1,0.9L87.7,85.4z M47.4,87.5h21.8l1.6-5H47.4V87.5z M47.4,99.2h18.1
			l1.6-5H47.4V99.2z M47.4,75.8h27.2l4.6-5H47.4V75.8z M92.9,91.6v16.2c0,1.8-1.5,3.3-3.3,3.3H45.5c-1.8,0-3.3-1.5-3.3-3.3V42.7
			c0-1.8,1.5-3.3,3.3-3.3h44.1c1.8,0,3.3,1.5,3.3,3.3v13.7l3.3-3.5V42c0-3.6-2.9-6.5-6.5-6.5H45.5c-3.6,0-6.5,2.9-6.5,6.5V108
			c0,3.6,2.9,6.5,6.5,6.5h44.1c3.6,0,6.5-2.9,6.5-6.5V88.1L92.9,91.6z M47.4,59.2v5h38.1l2.3-2.4v-2.5H47.4z M47.4,52.5h40.4v-5
			H47.4V52.5z"/>
	</g>
</g>
<g>
	<g>
		<circle fill="#FFFFFF" cx="75" cy="275" r="74"/>
		<path fill="#34526F" d="M75,350c-41.4,0-75-33.6-75-75s33.6-75,75-75s75,33.6,75,75S116.4,350,75,350z M75,202
			c-40.3,0-73,32.8-73,73s32.8,73,73,73s73-32.8,73-73S115.3,202,75,202z"/>
	</g>
	<g>
		<g>
			<polygon fill="#34526F" points="67.4,296.6 51.5,296.6 51.5,324.3 67.4,324.3 67.4,296.6 			"/>
		</g>
		<g>
			<path fill="#34526F" d="M109.4,247.4l4.7,8.1l0.8-29.8l-23.5,19.3l10-0.9c0,0-11.1,21.3-25,30.8c-13.9,9.5-42.5,20.4-41.4,20
				l0.8,0.8c-0.4,0.1,23-5.6,34.1-11.2c21.9-11,30.7-24.1,37.8-34.7L109.4,247.4L109.4,247.4z"/>
		</g>
		<g>
			<polygon fill="#34526F" points="108.7,324.3 108.7,277.7 92.8,277.7 92.8,324.3 108.7,324.3 			"/>
		</g>
		<g>
			<polygon fill="#34526F" points="72.1,324.3 72.1,291.2 88.1,291.2 88.1,324.3 72.1,324.3 			"/>
		</g>
	</g>
</g>
<g>
	<g>
		<circle fill="#FFFFFF" cx="75" cy="675" r="74"/>
		<path fill="#34526F" d="M75,750c-41.4,0-75-33.6-75-75s33.6-75,75-75s75,33.6,75,75S116.4,750,75,750z M75,602
			c-40.3,0-73,32.8-73,73s32.8,73,73,73s73-32.8,73-73S115.3,602,75,602z"/>
	</g>
	<g>
		<path fill="#34526F" d="M85.8,662.3c-1.2-0.4-2.5-0.7-3.8-0.7c-2.6,0-5.1,0.9-7,2.5c-1.8-1.6-4.4-2.5-7-2.5
			c-1.3,0-2.6,0.2-3.8,0.7c-4.1,1.5-6.6,5.6-6,9.9c0.9,7.5,11.6,18.3,16.8,18.4h0h0c5.1-0.1,15.9-11,16.8-18.4
			C92.4,667.9,89.9,663.8,85.8,662.3z M88.8,671.8C88,678,78.5,687.4,75,687.6c-3.5-0.1-13-9.6-13.8-15.8c-0.3-2.3,0.8-5.4,4-6.6
			c0.9-0.3,1.8-0.5,2.7-0.5c2.3,0,4.5,1,5.8,2.6l1.2,1.6l1.2-1.6c1.3-1.7,3.4-2.6,5.8-2.6c0.9,0,1.9,0.2,2.7,0.5
			C87.9,666.4,89.1,669.5,88.8,671.8z M108.6,720.8c-1.8-1.3-4.9-2.6-7.3-2.7c-0.1,0-0.2,0-0.4,0c-5.1,0.1-19,2.7-21.8,3.8
			c-1.2,0.5-2.6,0.7-3.9,0.7c-1.4,0-2.8-0.2-4-0.6c-5.7-2.1-26.7-16.7-35-28.5c-0.9-1.3-1.2-2.3-0.8-3.1c0.4-0.8,1.6-1.2,3.4-1.3
			c1.8,0,4,0.4,5.9,1.2l0.1,0.1l0.1-0.1c0.4-0.2,0.7-0.2,1.2-0.2c2.4,0,5.1,2.4,6.4,3.6c0.3,0.3,0.5,0.5,0.7,0.6l0.1,0.1
			c2.2,1.7,4.2,3.1,5.7,4.2c-0.8,0.1-1.4,0.2-2,0.4c-3.4,0.7-4.7,3.4-4.3,5.7c0.3,2,2.2,4.2,6.2,4.2c0.5,0,15.8-0.2,22.3,0.4
			c0.6,0.1,1,0.2,1.4,0.3c0.6,0.2,1.3,0.4,2.4,0.4c0.5,0,1-0.1,1.6-0.1c0.5-0.1,0.9-0.4,0.9-0.8c0-0.2,0-0.5-0.2-0.7
			c-0.2-0.2-0.4-0.3-0.6-0.3c-1.2-0.1-2.9-0.6-4.7-0.7c-8.8-0.5-22.8-0.3-23.1-0.3c-2.9,0-4.2-1.4-4.4-2.7c-0.2-1.4,0.7-3.1,2.9-3.5
			c3.7-0.8,8.7-1.1,13.6-1.4c3-0.2,6.1-0.4,8.9-0.7c2-0.2,3.8-0.8,5.7-1.5c2.5-0.8,5.1-1.7,8.6-1.8l0.3,0
			c10.4-0.1,18.4,9.1,18.5,9.2c0.1,0.1,0.1,0.1,0.2,0.2l11.1,6.3l-10.5,13.3L108.6,720.8z M41.4,629.2c1.8,1.3,4.9,2.6,7.3,2.7
			c0.1,0,0.2,0,0.4,0c5.1-0.1,19-2.7,21.8-3.8c1.2-0.5,2.6-0.7,3.9-0.7c1.4,0,2.8,0.2,4,0.6c5.7,2.1,26.7,16.7,35,28.5
			c0.9,1.3,1.2,2.3,0.8,3.1c-0.4,0.8-1.6,1.2-3.4,1.3c-1.8,0-4-0.4-5.9-1.2l-0.1-0.1l-0.1,0.1c-0.4,0.2-0.7,0.2-1.2,0.2
			c-2.4,0-5.1-2.4-6.4-3.6c-0.3-0.3-0.5-0.5-0.7-0.6l-0.1-0.1c-2.2-1.7-4.2-3.1-5.7-4.2c0.7-0.1,1.4-0.2,2-0.4
			c3.4-0.7,4.7-3.4,4.3-5.7c-0.3-2-2.2-4.2-6.2-4.2c-0.5,0-15.8,0.2-22.3-0.4c-0.6-0.1-1-0.2-1.4-0.3c-0.6-0.2-1.3-0.4-2.4-0.4
			c-0.5,0-1,0.1-1.6,0.1c-0.5,0.1-0.9,0.4-0.9,0.8c0,0.2,0,0.5,0.2,0.7c0.2,0.2,0.4,0.3,0.6,0.3c1.2,0.1,2.9,0.6,4.7,0.7
			c8.8,0.5,22.8,0.3,23.1,0.3c2.9,0,4.2,1.4,4.4,2.7c0.2,1.4-0.7,3.1-2.9,3.5c-3.7,0.8-8.7,1.1-13.6,1.4c-3,0.2-6.1,0.4-8.9,0.7
			c-2,0.2-3.8,0.8-5.7,1.5c-2.5,0.8-5.1,1.7-8.6,1.8l-0.3,0c-10.4,0.1-18.4-9.1-18.5-9.2c-0.1-0.1-0.1-0.1-0.2-0.2l-11.1-6.3
			l10.5-13.3L41.4,629.2z"/>
	</g>
</g>
<g>
	<g>
		<circle fill="#F39C12" cx="275" cy="475" r="75"/>
	</g>
	<g>
		<g>
			<path fill="#FFFFFF" d="M300.5,450.4l-21-7.3c-0.2,0.1-0.4,0.3-0.6,0.4c-0.9,0.3-2-0.1-2.4-0.9c-0.4-0.8,0-1.7,1-2
				c0.9-0.3,2,0.1,2.4,0.9c0.1,0.2,0.1,0.4,0.1,0.6l22.2,7.8l24.2-9.6L279.1,425l-51.3,19.1l47.4,16.3L300.5,450.4z"/>
		</g>
		<g>
			<path fill="#FFFFFF" d="M300.7,454.5l0-3.1l-25.4,10l-26.5-9.1v16.6h0.2c1.7,7.6,10.4,12.5,25.4,12.5c15,0,31.1-4.9,32.8-12.5
				h0.2v-20.2l-5.3,2.1l0,3.5c0.4,0.3,1,0.9,1,1.5c0,0,2.1,5.3,0.8,6.7c-2.4,2.6-4.7,0.7-4.7,0.7l0.8-7.6
				C300,455.1,300.4,454.8,300.7,454.5z"/>
		</g>
		<g>
			<path fill="#FFFFFF" d="M320.1,475.2c-0.8-0.6-6.4-1.9-13.2-3.3c-3.7,5.2-15.9,9.5-29.7,10.2c-14.7,0.8-25.5-3.7-28.2-10.8
				l-12,2.2c-6.4,1.1-2.7,2.1-1.7,2.4c0.8,0.6,1.4,1.6,1.4,2.9c0,1.5-0.9,2.8-2,3.2c-3.1-0.3-1.1,1.8-0.4,2.5c0,0-0.1,0-0.1,0
				c0.1,0,0.1,0,0.2,0.1c0.1,0.1,0.1,0.1,0.1,0.1s0.1,0,0.3,0.1c0.9,0.6,1.4,1.9,1,3.3c-0.4,1.7-1.9,2.9-3.3,2.8
				c0.1,0,0.2,0,0.2,0.1c1.5,0.2,3.1-1,3.5-2.8c0.3-1.4-0.1-2.6-0.9-3.3c5.5,1.4,36.2,9.4,37.3,9.6c2.5,0.5,7.2-0.5,7.2-0.5
				l37.9-6.1c6.5,3.4,0.1,6.6,0.1,6.6l-40.9,6.3c-2.5,0.3-2.5,0.3-4.4,0c-1.3-0.2-28.8-7.4-37.3-9.1c0,0-3.8-1.1-4.2-1
				c-1.4,0.6-0.9,1.1-0.9,1.1l-3.7,1.9c-6.1,1.9-0.4,3.4-0.4,3.4l1.3,0.2c1.6,1.1,2.6,3.3,2.6,5.9c0,2.7-1.2,5-2.8,6l-0.9-0.1
				c-5.5,1.1,0.2,3.6,0.2,3.6l44.8,5.6c-2.7,3.2-4.8,6.2-4.8,6.2l3.4-0.9l1.4,1.4c0,0,1.9-3,4.4-6.2l4.4,0.6
				c6.5,0.6,12.9-2.7,12.9-2.7l18.8-8.3c10.8-4.9,6.9-11.5,6.9-11.5c9.7-4.7,1.4-10.7,1.4-10.7C326.6,480.7,322.6,477.1,320.1,475.2
				z M282.9,515.8l-4.4-0.5c1.5-1.7,3.1-3.2,4.5-4l-3.2-0.4c-1.6,0.5-3.5,2-5.4,3.9l-46.6-5.5c1.7-1,3-3.3,3-6.1
				c0-2.5-1-4.6-2.5-5.7l40,4.8c3.5,1,6.4,1.4,8.2,1c1.6-0.3,6.5,0.8,6.5,0.8C293.3,509.6,282.9,515.8,282.9,515.8z M318.2,484.2
				l-43,7.7c0,0-0.7,0.2-4.2-0.8l-35.7-9c-0.1,0-0.2,0-0.3-0.1c1.2-0.3,2.2-1.6,2.2-3.2c0-1.1-0.5-2.1-1.2-2.7
				c4.2,1,34.9,8.5,35.7,8.7c3.3,0.8,6.9-0.2,6.9-0.2l39.4-7.4C325.2,480,318.2,484.2,318.2,484.2z"/>
		</g>
	</g>
</g>
<g>
	<g>
		<circle fill="#F39C12" cx="275" cy="75" r="75"/>
	</g>
	<g>
		<path fill="#FFFFFF" d="M303.2,48.9l4.2-4.5c2.5-2.7,6.3-3.3,8.5-1.4l6.2,5.7c2.1,2,1.8,5.8-0.7,8.5l-4.2,4.5
			c-0.5,0.5-1.1,0.8-1.4,0.5l-13-12C302.5,50.1,302.7,49.4,303.2,48.9z M313.6,64.7l-13-12c-0.3-0.3-0.9,0-1.4,0.5L274.3,80l0,0
			l-6.7,21.2l20.7-8.3l0,0l24.9-26.8C313.7,65.6,313.9,65,313.6,64.7z M302.3,57.8l1,0.9l-20.5,22.2l-1-0.9L302.3,57.8z M286.9,91.3
			c-0.2,0.2-0.4,0.4-0.7,0.5l0,0L275.7,96l-3.5-3.3l3.4-10.7l0,0c0.1-0.3,0.2-0.5,0.4-0.7c0.9-0.9,2.4-1,3.4,0
			c0.9,0.9,1.1,2.2,0.4,3.2c0.9-0.8,2.3-0.7,3.2,0.2c0.9,0.9,1.1,2.2,0.4,3.2c0.9-0.7,2.3-0.7,3.2,0.2
			C287.7,88.8,287.8,90.3,286.9,91.3z M287.8,85.5l-1-0.9l20.5-22.2l1,0.9L287.8,85.5z M247,87.7h22.1l1.6-5.1H247V87.7z M247,99.5
			h18.4l1.6-5.1h-20V99.5z M247,75.8h27.6l4.7-5.1H247V75.8z M293.1,91.8v16.4c0,1.8-1.5,3.3-3.3,3.3h-44.7c-1.8,0-3.3-1.5-3.3-3.3
			V42.2c0-1.8,1.5-3.3,3.3-3.3h44.7c1.8,0,3.3,1.5,3.3,3.3v13.9l3.3-3.5v-11c0-3.6-2.9-6.6-6.6-6.6h-44.7c-3.6,0-6.6,2.9-6.6,6.6
			v66.8c0,3.6,2.9,6.6,6.6,6.6h44.7c3.6,0,6.6-3,6.6-6.6V88.2L293.1,91.8z M247,58.9V64h38.6l2.3-2.5v-2.6H247z M247,52.2h40.9v-5.1
			H247V52.2z"/>
	</g>
</g>
<g>
	<g>
		<circle fill="#F39C12" cx="275" cy="275" r="75"/>
	</g>
	<g>
		<g>
			<polygon fill="#FFFFFF" points="267.3,296.8 251.2,296.8 251.2,325 267.3,325 267.3,296.8 			"/>
		</g>
		<g>
			<path fill="#FFFFFF" d="M309.9,247l4.7,8.3l0.8-30.2l-23.8,19.5l10.2-0.9c0,0-11.2,21.6-25.3,31.2c-14.1,9.6-43.1,20.7-42,20.3
				l0.8,0.8c-0.4,0.1,23.3-5.7,34.6-11.4c22.2-11.2,31.1-24.4,38.3-35.1L309.9,247L309.9,247z"/>
		</g>
		<g>
			<polygon fill="#FFFFFF" points="309.2,325 309.2,277.7 293,277.7 293,325 309.2,325 			"/>
		</g>
		<g>
			<polygon fill="#FFFFFF" points="272.1,325 272.1,291.4 288.3,291.4 288.3,325 272.1,325 			"/>
		</g>
	</g>
</g>
<g>
	<g>
		<circle fill="#F39C12" cx="275" cy="675" r="75"/>
	</g>
	<g>
		<path fill="#FFFFFF" d="M285.9,662.2c-1.2-0.4-2.5-0.7-3.8-0.7c-2.7,0-5.2,0.9-7.1,2.6c-1.9-1.6-4.4-2.6-7.1-2.6
			c-1.3,0-2.6,0.2-3.8,0.7c-4.2,1.5-6.7,5.6-6.1,10c0.9,7.6,11.8,18.6,17,18.7h0h0c5.2-0.1,16.1-11.1,17-18.7
			C292.6,667.8,290.1,663.7,285.9,662.2z M288.9,671.8c-0.8,6.2-10.4,15.8-13.9,15.9c-3.5-0.1-13.2-9.7-13.9-16
			c-0.3-2.4,0.8-5.5,4.1-6.7c0.9-0.3,1.8-0.5,2.8-0.5c2.4,0,4.6,1,5.9,2.7l1.2,1.6l1.2-1.6c1.3-1.7,3.5-2.7,5.9-2.7
			c1,0,1.9,0.2,2.8,0.5C288.1,666.3,289.3,669.4,288.9,671.8z M309.1,721.4c-1.8-1.3-4.9-2.7-7.4-2.7c-0.1,0-0.2,0-0.4,0
			c-5.1,0.1-19.3,2.8-22.1,3.9c-1.2,0.5-2.6,0.7-4,0.8c-1.4,0-2.8-0.2-4-0.7c-5.8-2.1-27.1-17-35.4-28.9c-0.9-1.3-1.2-2.4-0.8-3.1
			c0.4-0.8,1.7-1.3,3.4-1.3c1.9,0,4.1,0.4,6,1.2l0.1,0.1l0.1-0.1c0.4-0.2,0.8-0.2,1.2-0.2c2.4,0,5.1,2.4,6.5,3.6
			c0.3,0.3,0.5,0.5,0.7,0.6l0.1,0.1c2.2,1.7,4.3,3.2,5.8,4.2c-0.8,0.1-1.4,0.2-2,0.4c-3.4,0.7-4.8,3.5-4.4,5.7
			c0.4,2,2.2,4.3,6.3,4.2c0.5,0,16.1-0.2,22.6,0.4c0.6,0.1,1,0.2,1.5,0.3c0.7,0.2,1.3,0.4,2.4,0.4c0.5,0,1-0.1,1.6-0.1
			c0.6-0.1,0.9-0.4,1-0.8c0-0.2,0-0.5-0.2-0.7c-0.2-0.2-0.4-0.3-0.6-0.3c-1.2-0.1-2.9-0.6-4.8-0.7c-8.9-0.5-23.1-0.3-23.5-0.3
			c-2.9,0-4.2-1.4-4.5-2.7c-0.3-1.4,0.7-3.1,2.9-3.6c3.8-0.8,8.9-1.1,13.8-1.4c3.1-0.2,6.2-0.4,9-0.7c2.1-0.2,3.9-0.8,5.8-1.5
			c2.5-0.9,5.1-1.7,8.7-1.8l0.3,0c10.6-0.1,18.6,9.2,18.7,9.3c0.1,0.1,0.1,0.1,0.2,0.2l11.2,6.4L314.1,725L309.1,721.4z
			 M240.9,628.6c1.8,1.3,4.9,2.7,7.4,2.7c0.1,0,0.2,0,0.4,0c5.1-0.1,19.3-2.8,22.1-3.9c1.2-0.5,2.6-0.7,4-0.8c1.4,0,2.8,0.2,4,0.7
			c5.8,2.1,27.1,17,35.4,28.9c0.9,1.3,1.2,2.4,0.8,3.1c-0.4,0.8-1.7,1.3-3.4,1.3c-1.9,0-4.1-0.4-6-1.2l-0.1-0.1l-0.1,0.1
			c-0.4,0.2-0.8,0.2-1.2,0.2c-2.4,0-5.1-2.4-6.5-3.6c-0.3-0.3-0.5-0.5-0.7-0.6l-0.1-0.1c-2.2-1.7-4.3-3.2-5.8-4.2
			c0.8-0.1,1.4-0.2,2-0.4c3.4-0.7,4.8-3.5,4.4-5.7c-0.4-2-2.2-4.3-6.3-4.2c-0.5,0-16.1,0.2-22.6-0.4c-0.6-0.1-1-0.2-1.5-0.3
			c-0.7-0.2-1.3-0.4-2.4-0.4c-0.5,0-1,0.1-1.6,0.1c-0.6,0.1-0.9,0.4-1,0.8c0,0.2,0,0.5,0.2,0.7c0.2,0.2,0.4,0.3,0.6,0.3
			c1.2,0.1,2.9,0.6,4.8,0.7c8.9,0.5,23.1,0.3,23.5,0.3c2.9,0,4.2,1.4,4.5,2.7c0.2,1.4-0.7,3.1-2.9,3.6c-3.8,0.8-8.9,1.1-13.8,1.4
			c-3.1,0.2-6.2,0.4-9,0.7c-2.1,0.2-3.9,0.8-5.8,1.5c-2.5,0.9-5.1,1.7-8.7,1.8l-0.3,0c-10.6,0.1-18.6-9.2-18.7-9.3
			c-0.1-0.1-0.1-0.1-0.2-0.2l-11.2-6.4l10.7-13.4L240.9,628.6z"/>
	</g>
</g>
</svg>
