<?xml version="1.0" encoding="utf-8"?>
<!-- Generator: Adobe Illustrator 18.0.0, SVG Export Plug-In . SVG Version: 6.00 Build 0)  -->
<!DOCTYPE svg PUBLIC "-//W3C//DTD SVG 1.1//EN" "http://www.w3.org/Graphics/SVG/1.1/DTD/svg11.dtd">
<svg version="1.1" id="Layer_1" xmlns="http://www.w3.org/2000/svg" xmlns:xlink="http://www.w3.org/1999/xlink" x="0px" y="0px"
	 width="316.4px" height="313.5px" viewBox="0 0 316.4 313.5" enable-background="new 0 0 316.4 313.5" xml:space="preserve">
<g>
	<g>
		<path fill="#34495E" d="M179.3,312c-3.8,0-7.5-2.4-11.2-4.7c-3.4-2.1-6.8-4.3-9.9-4.3s-6.5,2.2-9.9,4.3c-3.7,2.3-7.4,4.7-11.2,4.7
			c-0.4,0-0.8,0-1.2-0.1c-4.3-0.6-7.7-4.4-10.9-8c-2.6-2.9-5.2-5.9-8-6.7c-0.7-0.2-1.5-0.3-2.3-0.3c-2.5,0-5.4,0.8-8.3,1.6
			c-3,0.8-6.1,1.7-9,1.7c-1.6,0-3-0.3-4.3-0.9c-3.9-1.8-6.1-6.3-8.1-10.7c-1.7-3.5-3.4-7.2-5.9-8.8c-2.5-1.6-6.6-1.7-10.5-1.7
			c-4.8-0.1-9.8-0.1-13-2.9c-3.2-2.8-4-7.7-4.8-12.5c-0.6-3.9-1.2-7.9-3.2-10.1c-1.9-2.2-5.8-3.4-9.6-4.6c-4.6-1.4-9.4-2.9-11.7-6.5
			c-2.3-3.6-1.7-8.5-1-13.3c0.5-3.9,1-7.9-0.2-10.7c-1.2-2.7-4.6-4.9-7.8-7c-4.1-2.7-8.2-5.4-9.5-9.6c-1.2-4.1,0.8-8.6,2.8-13
			c1.6-3.6,3.3-7.4,2.8-10.3c-0.4-2.9-3-5.9-5.5-8.9c-3.1-3.7-6.4-7.6-6.4-11.9s3.3-8.2,6.4-11.9c2.5-3,5.1-6,5.5-8.9
			c0.4-3-1.2-6.7-2.8-10.3c-1.9-4.4-4-8.9-2.8-13c1.2-4.2,5.4-6.9,9.5-9.6c3.3-2.1,6.6-4.4,7.8-7c1.2-2.7,0.7-6.8,0.2-10.7
			c-0.6-4.8-1.3-9.7,1-13.3c2.3-3.6,7.1-5.1,11.7-6.5c3.7-1.1,7.6-2.3,9.6-4.6c1.9-2.2,2.6-6.2,3.2-10.1c0.7-4.8,1.5-9.7,4.8-12.5
			c3.2-2.8,8.2-2.9,13-2.9c3.9,0,8-0.1,10.5-1.7c2.5-1.6,4.2-5.3,5.9-8.8c2.1-4.4,4.2-8.9,8.1-10.7c1.3-0.6,2.7-0.9,4.3-0.9
			c2.9,0,6,0.9,9,1.7c2.8,0.8,5.8,1.6,8.3,1.6c0.9,0,1.6-0.1,2.3-0.3c2.8-0.8,5.5-3.8,8-6.7c3.2-3.6,6.6-7.4,10.9-8
			c0.4-0.1,0.8-0.1,1.2-0.1c3.8,0,7.5,2.4,11.2,4.7c3.4,2.1,6.8,4.3,9.9,4.3s6.5-2.2,9.9-4.3c3.7-2.3,7.4-4.7,11.2-4.7
			c0.4,0,0.8,0,1.2,0.1c4.3,0.6,7.7,4.4,10.9,8c2.6,2.9,5.2,5.9,8,6.7c0.7,0.2,1.5,0.3,2.3,0.3c2.5,0,5.4-0.8,8.3-1.6
			c3-0.8,6.1-1.7,9-1.7c1.6,0,3,0.3,4.3,0.9c3.9,1.8,6.1,6.3,8.1,10.7c1.7,3.5,3.4,7.2,5.9,8.8c2.5,1.6,6.6,1.7,10.5,1.7
			c4.8,0.1,9.8,0.1,13,2.9c3.2,2.8,4,7.7,4.8,12.5c0.6,3.9,1.2,7.9,3.2,10.1c1.9,2.2,5.8,3.4,9.6,4.6c4.6,1.4,9.4,2.9,11.7,6.5
			c2.3,3.6,1.7,8.5,1,13.3c-0.5,3.9-1,7.9,0.2,10.7c1.2,2.7,4.6,4.9,7.8,7c4.1,2.7,8.2,5.4,9.5,9.6c1.2,4.1-0.8,8.6-2.8,13
			c-1.6,3.6-3.3,7.4-2.8,10.3c0.4,2.9,3,5.9,5.5,8.9c3.1,3.7,6.4,7.6,6.4,11.9s-3.3,8.2-6.4,11.9c-2.5,3-5.1,6-5.5,8.9
			c-0.4,3,1.2,6.7,2.8,10.3c1.9,4.4,4,8.9,2.8,13c-1.2,4.2-5.4,6.9-9.5,9.6c-3.3,2.1-6.6,4.4-7.8,7c-1.2,2.7-0.7,6.8-0.2,10.7
			c0.6,4.8,1.3,9.7-1,13.3c-2.3,3.6-7.1,5.1-11.7,6.5c-3.7,1.1-7.6,2.3-9.6,4.6c-1.9,2.2-2.6,6.2-3.2,10.1
			c-0.7,4.8-1.5,9.7-4.8,12.5c-3.2,2.8-8.2,2.9-13,2.9c-3.9,0-8,0.1-10.5,1.7c-2.5,1.6-4.2,5.3-5.9,8.8c-2.1,4.4-4.2,8.9-8.1,10.7
			c-1.3,0.6-2.7,0.9-4.3,0.9c-2.9,0-6-0.9-9-1.7c-2.8-0.8-5.8-1.6-8.3-1.6c-0.9,0-1.6,0.1-2.3,0.3c-2.8,0.8-5.5,3.8-8,6.7
			c-3.2,3.6-6.6,7.4-10.9,8C180.1,311.9,179.7,312,179.3,312z"/>
		<path fill="#FFFFFF" d="M179.3,3c0.3,0,0.7,0,1,0.1c7.1,1,11.9,12.7,18.7,14.7c0.9,0.3,1.8,0.4,2.8,0.4c5.4,0,12-3.3,17.3-3.3
			c1.3,0,2.6,0.2,3.7,0.7c6.5,3,7.8,15.6,13.8,19.4c6,3.9,18-0.2,23.4,4.5c5.4,4.7,3.1,17.1,7.8,22.5c4.7,5.4,17.3,4.9,21.2,10.9
			c3.9,6-1.8,17.2,1.1,23.8c3,6.5,15.2,9.5,17.2,16.4c2,6.8-6.7,16-5.6,23.1c1,7,11.9,13.4,11.9,20.6c0,7.2-10.9,13.6-11.9,20.6
			c-1,7.1,7.6,16.3,5.6,23.1c-2,6.9-14.3,10-17.2,16.4c-3,6.5,2.7,17.8-1.1,23.8c-3.9,6-16.5,5.5-21.2,10.9
			c-4.7,5.4-2.4,17.8-7.8,22.5c-5.4,4.7-17.4,0.6-23.4,4.5c-6,3.9-7.3,16.4-13.8,19.4c-1.1,0.5-2.4,0.7-3.7,0.7
			c-5.3,0-11.9-3.3-17.3-3.3c-1,0-1.9,0.1-2.8,0.4c-6.8,2-11.6,13.7-18.7,14.7c-0.3,0-0.7,0.1-1,0.1c-6.7,0-14.2-8.9-21.1-8.9
			c-6.9,0-14.4,8.9-21.1,8.9c-0.3,0-0.7,0-1-0.1c-7.1-1-11.9-12.7-18.7-14.7c-0.9-0.3-1.8-0.4-2.8-0.4c-5.4,0-12,3.3-17.3,3.3
			c-1.3,0-2.6-0.2-3.7-0.7c-6.5-3-7.8-15.6-13.8-19.4c-6-3.9-18,0.2-23.4-4.5c-5.4-4.7-3.1-17.1-7.8-22.5
			c-4.7-5.4-17.3-4.9-21.2-10.9c-3.9-6,1.8-17.2-1.1-23.8c-3-6.5-15.2-9.5-17.2-16.4c-2-6.8,6.7-16,5.6-23.1
			c-1-7-11.9-13.4-11.9-20.6c0-7.2,10.9-13.6,11.9-20.6c1-7.1-7.6-16.3-5.6-23.1c2-6.9,14.3-10,17.2-16.4c3-6.5-2.7-17.8,1.1-23.8
			c3.9-6,16.5-5.5,21.2-10.9c4.7-5.4,2.4-17.8,7.8-22.5c5.4-4.7,17.4-0.6,23.4-4.5c6-3.9,7.3-16.4,13.8-19.4
			c1.1-0.5,2.4-0.7,3.7-0.7c5.3,0,11.9,3.3,17.3,3.3c1,0,1.9-0.1,2.8-0.4c6.8-2,11.6-13.7,18.7-14.7c0.3,0,0.7-0.1,1-0.1
			c6.7,0,14.2,8.9,21.1,8.9C165.1,11.9,172.6,3,179.3,3 M179.3,0c-4.2,0-8.2,2.5-12,4.9c-3.2,2-6.5,4.1-9.1,4.1
			c-2.6,0-5.9-2.1-9.1-4.1c-3.8-2.4-7.8-4.9-12-4.9c-0.5,0-1,0-1.4,0.1c-4.9,0.7-8.4,4.7-11.8,8.5c-2.4,2.7-5,5.6-7.3,6.3
			c-0.6,0.2-1.2,0.2-1.9,0.2c-2.3,0-5.1-0.8-7.9-1.6c-3.1-0.9-6.3-1.8-9.4-1.8c-1.9,0-3.5,0.3-4.9,1c-4.4,2-6.7,6.8-8.9,11.4
			c-1.6,3.3-3.2,6.8-5.3,8.2c-2.1,1.4-6,1.4-9.7,1.5c-5.1,0.1-10.4,0.1-14,3.3c-3.7,3.2-4.5,8.4-5.3,13.4c-0.6,3.7-1.2,7.5-2.8,9.4
			c-1.7,1.9-5.3,3-8.9,4.1c-4.9,1.5-9.9,3-12.6,7.1c-2.6,4.1-1.9,9.3-1.3,14.3c0.5,3.7,1,7.5-0.1,9.8c-1,2.3-4.2,4.4-7.3,6.4
			c-4.3,2.8-8.7,5.7-10.1,10.4c-1.3,4.6,0.8,9.4,2.8,14c1.5,3.4,3.1,7,2.7,9.5c-0.3,2.4-2.8,5.3-5.2,8.1c-3.3,3.9-6.8,8-6.8,12.9
			s3.4,9,6.8,12.9c2.4,2.8,4.8,5.7,5.2,8.1c0.4,2.6-1.2,6.1-2.7,9.5c-2.1,4.6-4.2,9.4-2.8,14c1.4,4.7,5.8,7.6,10.1,10.4
			c3.1,2,6.3,4.1,7.3,6.4c1.1,2.3,0.6,6.1,0.1,9.8c-0.7,5-1.3,10.3,1.3,14.3c2.6,4.1,7.7,5.6,12.6,7.1c3.5,1.1,7.2,2.2,8.9,4.1
			c1.7,1.9,2.3,5.7,2.8,9.4c0.8,5,1.6,10.2,5.3,13.4c3.7,3.2,8.9,3.2,14,3.3c3.7,0,7.6,0.1,9.7,1.5c2.1,1.4,3.7,4.8,5.3,8.2
			c2.2,4.6,4.4,9.4,8.9,11.4c1.5,0.7,3.1,1,4.9,1c3.1,0,6.3-0.9,9.4-1.8c2.7-0.8,5.6-1.6,7.9-1.6c0.7,0,1.4,0.1,1.9,0.2
			c2.4,0.7,4.9,3.5,7.3,6.3c3.4,3.8,6.9,7.8,11.8,8.5c0.5,0.1,0.9,0.1,1.4,0.1c4.2,0,8.2-2.5,12-4.9c3.2-2,6.5-4.1,9.1-4.1
			c2.6,0,5.9,2.1,9.1,4.1c3.8,2.4,7.8,4.9,12,4.9c0.5,0,1,0,1.4-0.1c4.9-0.7,8.4-4.7,11.8-8.5c2.4-2.7,5-5.6,7.3-6.3
			c0.6-0.2,1.2-0.2,1.9-0.2c2.3,0,5.1,0.8,7.9,1.6c3.1,0.9,6.3,1.8,9.4,1.8c1.9,0,3.5-0.3,4.9-1c4.4-2,6.7-6.8,8.9-11.4
			c1.6-3.3,3.2-6.8,5.3-8.2c2.1-1.4,6-1.4,9.7-1.5c5.1-0.1,10.4-0.1,14-3.3c3.7-3.2,4.5-8.4,5.3-13.4c0.6-3.7,1.2-7.5,2.8-9.4
			c1.7-1.9,5.3-3,8.9-4.1c4.9-1.5,9.9-3,12.6-7.1c2.6-4.1,1.9-9.3,1.3-14.3c-0.5-3.7-1-7.5,0.1-9.8c1-2.3,4.2-4.4,7.3-6.4
			c4.3-2.8,8.7-5.7,10.1-10.4c1.3-4.6-0.8-9.4-2.8-14c-1.5-3.4-3.1-7-2.7-9.5c0.3-2.4,2.8-5.3,5.2-8.1c3.3-3.9,6.8-8,6.8-12.9
			s-3.4-9-6.8-12.9c-2.4-2.8-4.8-5.7-5.2-8.1c-0.4-2.6,1.2-6.1,2.7-9.5c2.1-4.6,4.2-9.4,2.8-14c-1.4-4.7-5.8-7.6-10.1-10.4
			c-3.1-2-6.3-4.1-7.3-6.4c-1.1-2.3-0.6-6.1-0.1-9.8c0.7-5,1.3-10.3-1.3-14.3c-2.6-4.1-7.7-5.6-12.6-7.1c-3.5-1.1-7.2-2.2-8.9-4.1
			c-1.7-1.9-2.3-5.7-2.8-9.4c-0.8-5-1.6-10.2-5.3-13.4c-3.7-3.2-8.9-3.2-14-3.3c-3.7,0-7.6-0.1-9.7-1.5c-2.1-1.4-3.7-4.8-5.3-8.2
			c-2.2-4.6-4.4-9.4-8.9-11.4c-1.5-0.7-3.1-1-4.9-1c-3.1,0-6.3,0.9-9.4,1.8c-2.7,0.8-5.6,1.6-7.9,1.6c-0.7,0-1.4-0.1-1.9-0.2
			c-2.4-0.7-4.9-3.5-7.3-6.3c-3.4-3.8-6.9-7.8-11.8-8.5C180.3,0,179.8,0,179.3,0L179.3,0z"/>
	</g>
	<circle fill="#FFFFFF" cx="158.2" cy="156.7" r="134.8"/>
	<g>
		<circle fill="#34495E" cx="158.2" cy="156.7" r="85.1"/>
		<path fill="none" stroke="#34495E" stroke-width="2.4" stroke-miterlimit="10" d="M158.2,250.5c-51.7,0-93.8-42.1-93.8-93.8
			c0-51.7,42.1-93.8,93.8-93.8c51.7,0,93.8,42.1,93.8,93.8C252,208.5,209.9,250.5,158.2,250.5z"/>
	</g>
	<g>
		<path fill="#FFFFFF" d="M122,186.1v7.6H93.2c0.3-2.9,1.2-5.6,2.8-8.2c1.6-2.6,4.6-6,9.2-10.3c3.7-3.4,6-5.8,6.8-7
			c1.1-1.7,1.7-3.4,1.7-5c0-1.8-0.5-3.2-1.5-4.2c-1-1-2.3-1.5-4.1-1.5c-1.7,0-3.1,0.5-4.1,1.5c-1,1-1.6,2.7-1.8,5.1l-8.2-0.8
			c0.5-4.5,2-7.8,4.6-9.7c2.6-2,5.8-2.9,9.6-2.9c4.2,0,7.5,1.1,10,3.4c2.4,2.3,3.6,5.1,3.6,8.5c0,1.9-0.3,3.8-1,5.5
			c-0.7,1.7-1.8,3.6-3.3,5.5c-1,1.3-2.8,3.1-5.4,5.5c-2.6,2.4-4.2,4-4.9,4.7c-0.7,0.8-1.3,1.5-1.7,2.3H122z"/>
		<path fill="#FFFFFF" d="M141.4,150.7c4.1,0,7.4,1.5,9.7,4.4c2.8,3.5,4.2,9.3,4.2,17.4c0,8.1-1.4,13.9-4.2,17.5
			c-2.3,2.9-5.5,4.4-9.7,4.4c-4.2,0-7.5-1.6-10.1-4.8c-2.5-3.2-3.8-8.9-3.8-17.1c0-8.1,1.4-13.9,4.2-17.4
			C134,152.2,137.2,150.7,141.4,150.7z M141.4,157.5c-1,0-1.9,0.3-2.7,0.9c-0.8,0.6-1.4,1.8-1.8,3.4c-0.6,2.1-0.8,5.7-0.8,10.7
			c0,5,0.3,8.5,0.8,10.4c0.5,1.9,1.1,3.1,1.9,3.8c0.8,0.6,1.6,0.9,2.6,0.9s1.9-0.3,2.7-0.9c0.8-0.6,1.4-1.8,1.8-3.4
			c0.6-2.1,0.8-5.7,0.8-10.7c0-5-0.3-8.5-0.8-10.3c-0.5-1.9-1.1-3.1-1.9-3.8C143.2,157.8,142.4,157.5,141.4,157.5z"/>
		<path fill="#FFFFFF" d="M181.7,193.7h-8.2v-30.9c-3,2.8-6.5,4.9-10.6,6.2v-7.4c2.1-0.7,4.5-2,7-4c2.5-2,4.2-4.2,5.2-6.8h6.7V193.7
			z"/>
		<path fill="#FFFFFF" d="M194.1,182.7l8.2-0.8c0.2,1.8,0.9,3.3,2.1,4.4s2.5,1.6,4,1.6c1.7,0,3.2-0.7,4.3-2.1s1.8-3.5,1.8-6.3
			c0-2.6-0.6-4.6-1.8-5.9c-1.2-1.3-2.7-2-4.6-2c-2.4,0-4.5,1-6.3,3.1l-6.7-1l4.2-22.3H221v7.7h-15.5l-1.3,7.3
			c1.8-0.9,3.7-1.4,5.6-1.4c3.6,0,6.7,1.3,9.3,4c2.5,2.6,3.8,6.1,3.8,10.3c0,3.5-1,6.7-3.1,9.4c-2.8,3.8-6.6,5.7-11.6,5.7
			c-4,0-7.2-1.1-9.7-3.2C196.1,189.1,194.6,186.2,194.1,182.7z"/>
	</g>
	<g>
		<path fill="#FFFFFF" d="M115.7,111v4.8c0,2.4,1,3.7,3,3.7c0.3,0,0.6,0,0.9-0.1l1.2,4.4c-1.2,0.5-2.5,0.8-3.9,0.8
			c-1.7,0-3.1-0.3-4.3-1s-2.1-1.6-2.6-2.9c-0.6-1.2-0.8-3.1-0.8-5.5v-9c3.2-0.6,6.4-0.9,9.6-0.9c4.4,0,7.6,0.5,9.7,1.6
			s3.5,2.5,4.4,4.2s1.3,4.5,1.3,8.3v23.2H127v-23.4c0-3.4-0.7-5.7-2-6.8c-1.3-1.1-3.4-1.6-6.1-1.6
			C117.8,110.7,116.8,110.8,115.7,111z"/>
		<path fill="#FFFFFF" d="M160.9,132.3h-7.1v-13.1c0-2.9-0.7-4.9-2.1-6.1c-1.4-1.2-3.7-1.8-6.8-1.8c-1.6,0-3.7,0.2-6.3,0.5l-0.5-5.6
			c2.4-0.6,5.2-0.8,8.4-0.8c4.8,0,8.4,1,10.8,3c2.4,2,3.6,5.2,3.6,9.6V132.3z"/>
		<path fill="#FFFFFF" d="M174.7,105.6v26.7h-7.3v-26.7H174.7z"/>
		<path fill="#FFFFFF" d="M206.5,132.3h-7.1v-14c0-2.3-0.5-4.1-1.5-5.3c-1-1.2-2.9-1.8-5.6-1.8c-1.5,0-2.7,0.1-3.7,0.3v20.9h-7.1
			v-26.2c3.2-0.6,6.5-0.8,9.8-0.8c4.2,0,7.4,0.5,9.5,1.6s3.5,2.4,4.4,4.1c0.9,1.7,1.3,4,1.3,6.9V132.3z"/>
	</g>
	<g>
		<path fill="#34495E" d="M53.7,114.9l-12.4-3.8l-5.5-2.3l2-4.9l5.5,2.3l11.5,6.1L53.7,114.9z M59.4,118.4l-4.5-1.9l1.9-4.5l4.5,1.9
			L59.4,118.4z"/>
		<path fill="#34495E" d="M72.1,94.4l-2.5,4.2L62.1,94c-1.9-1.2-3.6-1.5-4.9-1c-1.3,0.5-2.6,1.7-3.7,3.7c-0.9,1.4-1.7,3.1-2.5,4.9
			l-3.5-1.7c0.7-1.8,1.7-3.8,3-6c1.4-2.4,2.9-4,4.4-4.9c1.5-0.9,2.9-1.3,4.3-1.2c1.4,0.1,3,0.7,4.8,1.8L72.1,94.4z M57.5,100l8.2,5
			l-2.5,4.2l-8.2-5L57.5,100z"/>
		<path fill="#34495E" d="M66.2,78.8c-0.8-3.2-0.3-5.8,1.4-7.7c1.5-1.6,3.3-2.3,5.4-2.1s4.7,1.6,7.5,4.3l5.6,5.2l-6.4,6.9l-3.1-2.8
			l3.1-3.3l-2.7-2.5c-1.8-1.6-3.2-2.6-4.2-3c-1-0.4-1.8-0.2-2.5,0.6c-0.7,0.8-0.9,1.8-0.5,3.1c0.4,1.3,1.5,3.2,3.5,5.8l3.8,5
			l-3.5,3.8l-2.4-3.3c-1.4-2-2.4-3.5-2.9-4.6l-8.9-3.9l3-3.3L66.2,78.8z"/>
		<path fill="#34495E" d="M81.4,58.8l11.7,14.3l-3.9,3.2L77.5,62L81.4,58.8z"/>
		<path fill="#34495E" d="M98.3,47.4l1.4,2.5l0.8,1.4c0.2,0.5,0.5,1,0.6,1.5c0.2,0.5,0.2,1.1,0.2,1.7c0,0.6-0.1,1.3-0.3,1.9
			c-0.2,0.7-0.5,1.3-0.9,2l6.3,3l1.2,1.8l-12.4,7.8L93,67.6l7-4.4l-15.5-7.1l4.5-2.8l7.7,3.6c0.4-0.4,0.6-0.9,0.5-1.3
			c-0.1-0.5-0.6-1.5-1.4-3.1l-1.4-2.6L98.3,47.4z"/>
		<path fill="#34495E" d="M107.9,42.9l4.4,9.3l-4.6,2.1l-4.4-9.3L107.9,42.9z"/>
		<path fill="#34495E" d="M124.8,52.3c1.1-0.9,1.7-1.8,1.8-2.8c0.1-1-0.1-2.3-0.6-4l-2.4-8.4l4.6-1.5l1.7,6.4
			c0.5,1.9,0.9,3.4,1.1,4.5c0.2,1,0.2,2.1,0,3.2c-0.2,1.1-0.7,2.3-1.5,3.4c-0.8,1.1-2.1,2.3-4,3.7c-1.9,1.4-4.2,2.7-6.9,4.1
			l-1.8-3.6c1.7-0.8,3.1-1.6,4.3-2.3l-8-14.6l4.7-1.5L124.8,52.3z"/>
		<path fill="#34495E" d="M150.2,46.7l3.3-0.4l0.5,4.2l-18.2,2.3l-0.5-4.2l10.1-1.3l-0.6-4.8c-0.3-2-0.9-3.4-1.8-4.1
			c-1-0.7-2.5-0.9-4.6-0.7c-1.2,0.2-2.6,0.5-4.1,0.9l-0.9-3.8c1.7-0.6,3.5-1,5.3-1.3c3.4-0.4,5.9-0.1,7.7,1.1s2.8,3.3,3.2,6.3
			L150.2,46.7z"/>
		<path fill="#34495E" d="M171.8,41.9l-1.4,9.5l-4.8-0.7l1.4-9.5L171.8,41.9z M182.6,53.2l-4.8-0.7l1.3-8.6c0.3-2.2,0-3.9-1-4.9
			c-1-1-2.6-1.7-4.8-2c-1.7-0.2-3.5-0.4-5.5-0.4l0.2-3.9c1.9-0.1,4.2,0.1,6.7,0.5c2.8,0.4,4.8,1.1,6.2,2.2c1.4,1,2.3,2.2,2.8,3.5
			c0.5,1.3,0.5,3,0.2,5.1L182.6,53.2z"/>
		<path fill="#34495E" d="M194.7,41.8c2.7-2,5.2-2.5,7.7-1.6c2.1,0.7,3.4,2.1,4,4.2c0.6,2.1,0.3,4.9-1,8.6l-2.6,7.2l-8.9-3.2l1.4-4
			l4.3,1.5l1.3-3.5c0.8-2.3,1.2-3.9,1.2-5s-0.6-1.7-1.5-2.1c-1-0.4-2-0.1-3.1,0.7s-2.4,2.7-4,5.5l-3.2,5.5l-4.9-1.8l2.2-3.5
			c1.3-2.1,2.3-3.5,3.1-4.5l0.2-9.7l4.2,1.5L194.7,41.8z"/>
		<path fill="#34495E" d="M213.5,58.6c-0.3,0.9-0.2,1.9,0.2,3c0.5,1.1,1.2,1.9,2.2,2.5c1.7,1.1,3.3,1.4,4.8,0.9s3.3-2,5.2-4.7l4-5.5
			l4.1,2.6l-4.3,5.7c-1.8,2.4-3.4,4-4.7,4.9c-1.3,0.8-3,1.3-4.9,1.3c-1.9,0-4-0.6-6.1-2c-2.8-1.7-4.4-4-4.9-6.8
			c-0.5-2.8,0.4-6,2.7-9.6l3.2-5.4L219,48l-2.6,4.2c-0.3,0.6-0.8,1.4-1.4,2.5c-0.3,0.5-0.4,0.8-0.6,1c0.7,0.4,1.4,0.6,2.1,0.6
			s1.3-0.2,1.8-0.7c0.5-0.5,1.2-1.3,2.2-2.7l1.9-2.7l4,2.5l-2.6,3.7c-0.7,1-1.3,1.7-1.8,2.2c-0.5,0.5-1.1,0.9-1.9,1.2
			s-1.7,0.4-2.8,0.2C216.2,59.8,214.9,59.3,213.5,58.6z"/>
		<path fill="#34495E" d="M236.1,84.6l-3.5-3.3l6.2-6.6c1.4-1.4,2-2.8,1.8-4.1c-0.1-1.3-1-2.7-2.5-4.1c-0.8-0.7-1.9-1.7-3.4-2.7
			l2.4-3c1.5,0.9,3,2.1,4.6,3.6c2.4,2.3,3.7,4.5,4,6.6c0.3,2.1-0.7,4.3-2.7,6.5L236.1,84.6z"/>
		<path fill="#34495E" d="M249.2,85.4l-7.7,5.7l-2.9-3.9l7.7-5.7L249.2,85.4z M248.8,101.1l-2.9-3.9l7-5.2c1.8-1.3,2.8-2.7,2.8-4.1
			s-0.6-3-2-4.8c-1-1.4-2.2-2.7-3.6-4.2l2.9-2.6c1.4,1.3,2.9,3,4.4,5.1c1.7,2.3,2.6,4.2,2.9,5.9c0.3,1.7,0.1,3.2-0.5,4.4
			c-0.6,1.2-1.7,2.5-3.5,3.8L248.8,101.1z"/>
		<path fill="#34495E" d="M261.3,104.5l-8.7,4.1l-2.1-4.4l8.7-4.1L261.3,104.5z M257.9,119.7l-2.1-4.4l7.9-3.7c2-1,3.2-2.1,3.5-3.5
			c0.3-1.4,0-3.1-1-5.1c-0.7-1.5-1.6-3.1-2.7-4.8l3.4-2c1.1,1.6,2.2,3.5,3.3,5.9c1.2,2.5,1.7,4.7,1.7,6.4c-0.1,1.7-0.5,3.1-1.3,4.3
			c-0.8,1.1-2.2,2.1-4.1,3L257.9,119.7z"/>
	</g>
	<g>
		<path fill="#34495E" d="M36.9,192.7l4.7-1.5l1.5,4.7l-4.7,1.5L36.9,192.7z M43.5,191.7l12-5.1l5.7-1.8l1.6,5l-5.7,1.8l-12.7,2.7
			L43.5,191.7z"/>
		<path fill="#34495E" d="M52.3,206.4l-8.6,4.3l-2.2-4.4l8.6-4.3L52.3,206.4z M49.4,221.8l-2.2-4.3l7.8-3.9c2-1,3.2-2.2,3.4-3.6
			c0.3-1.4-0.1-3.1-1.1-5.1c-0.8-1.5-1.7-3.1-2.9-4.7l3.3-2.1c1.2,1.5,2.3,3.4,3.5,5.7c1.3,2.5,1.9,4.6,1.9,6.3s-0.4,3.2-1.2,4.3
			c-0.8,1.1-2.1,2.2-4,3.2L49.4,221.8z"/>
		<path fill="#34495E" d="M68.3,223.6c3.3-0.3,5.8,0.5,7.4,2.6c1.4,1.7,1.8,3.6,1.3,5.7s-2.3,4.4-5.3,6.8l-5.9,4.8l-5.9-7.3l3.3-2.7
			l2.9,3.5l2.9-2.3c1.9-1.5,3.1-2.8,3.6-3.7c0.5-0.9,0.4-1.8-0.2-2.6c-0.7-0.8-1.7-1.1-3-1s-3.4,1.1-6.3,2.6l-5.5,3.1l-3.3-4
			l3.7-1.9c2.2-1.1,3.8-1.8,4.9-2.2l5.2-8.2l2.8,3.4L68.3,223.6z"/>
		<path fill="#34495E" d="M87.6,238.5l-12.4,13.7l-3.7-3.4l12.4-13.7L87.6,238.5z"/>
		<path fill="#34495E" d="M103.1,249.9l-1.8,2.3l-1,1.3c-0.3,0.4-0.7,0.8-1.1,1.1c-0.4,0.4-0.9,0.7-1.5,0.9
			c-0.6,0.2-1.2,0.4-1.9,0.5c-0.7,0.1-1.4,0.1-2.2,0l-0.2,7l-1.2,1.8l-12.1-8.3l2.4-3.5l6.8,4.7l0.4-17l4.3,3l-0.3,8.5
			c0.6,0.2,1,0.2,1.4-0.1c0.4-0.2,1.1-1.1,2.2-2.5l1.8-2.3L103.1,249.9z"/>
		<path fill="#34495E" d="M111.7,254.3l-4.7,9.2l-4.5-2.3l4.7-9.2L111.7,254.3z"/>
		<path fill="#34495E" d="M118.1,272.9c1.4,0,2.4-0.4,3.1-1.1s1.3-1.9,1.9-3.6l3-8.2l4.6,1.6l-2.4,6.2c-0.7,1.9-1.3,3.3-1.8,4.2
			s-1.1,1.8-1.9,2.6c-0.8,0.8-1.9,1.4-3.2,1.8s-3.1,0.6-5.4,0.6s-5-0.3-8-0.8l0.7-4c1.8,0.3,3.5,0.6,4.9,0.7l2.2-16.5l4.7,1.6
			L118.1,272.9z"/>
		<path fill="#34495E" d="M147.4,278.7l3.3,0.5l-0.6,4.2l-18.2-2.5l0.6-4.2l10.1,1.4l0.7-4.8c0.3-2,0-3.5-0.7-4.4
			c-0.7-0.9-2.2-1.6-4.3-1.9c-1.2-0.2-2.6-0.2-4.2-0.2l0.2-3.9c1.8-0.1,3.7-0.1,5.5,0.2c3.3,0.5,5.7,1.5,7.1,3.1
			c1.4,1.6,1.9,3.9,1.5,6.9L147.4,278.7z"/>
		<path fill="#34495E" d="M186.8,280.3L182,281l-1.4-8.6c-0.4-2.2-1.2-3.7-2.4-4.4c-1.2-0.7-3-0.8-5.2-0.5c-1.7,0.3-3.5,0.7-5.4,1.3
			l-1-3.8c1.8-0.6,4-1.1,6.5-1.5c2.8-0.4,5-0.4,6.6,0.2c1.6,0.6,2.9,1.4,3.7,2.5c0.8,1.1,1.4,2.7,1.8,4.8L186.8,280.3z M173.1,272.7
			l1.5,9.5l-4.8,0.8l-1.5-9.5L173.1,272.7z"/>
		<path fill="#34495E" d="M194.3,262.9c0.7-3.2,2.3-5.3,4.7-6.3c2-0.8,4-0.6,5.8,0.5s3.4,3.5,4.8,7.1l2.8,7.1l-8.8,3.4l-1.5-3.9
			l4.2-1.6l-1.3-3.5c-0.9-2.3-1.7-3.8-2.4-4.5c-0.7-0.8-1.6-1-2.5-0.6c-1,0.4-1.6,1.2-1.8,2.6c-0.2,1.3,0,3.6,0.6,6.8l1.2,6.2
			l-4.8,1.9l-0.7-4.1c-0.4-2.4-0.6-4.2-0.6-5.4l-6.2-7.5l4.1-1.6L194.3,262.9z"/>
		<path fill="#34495E" d="M221.4,258.8c0.7,0.7,1.7,1,2.8,1s2.2-0.3,3.2-1c1.6-1.1,2.5-2.5,2.7-4s-0.6-3.8-2.2-6.6l-3.4-5.9l4-2.7
			l3.5,6.2c1.5,2.6,2.3,4.7,2.6,6.3c0.2,1.6,0,3.2-0.8,5c-0.7,1.8-2.2,3.4-4.2,4.8c-2.7,1.8-5.4,2.4-8.2,1.8
			c-2.8-0.7-5.4-2.8-7.8-6.3l-3.7-5l4-2.7l2.8,4c0.4,0.5,0.9,1.3,1.7,2.2c0.3,0.4,0.6,0.7,0.7,0.9c0.7-0.4,1.1-1,1.4-1.7
			c0.3-0.7,0.3-1.3,0.1-2c-0.2-0.6-0.7-1.7-1.6-3l-1.7-2.8l3.9-2.7l2.4,3.9c0.6,1,1,1.9,1.3,2.5s0.3,1.4,0.3,2.2s-0.3,1.7-0.9,2.7
			C223.6,256.8,222.7,257.8,221.4,258.8z"/>
		<path fill="#34495E" d="M254.7,238.8l-3.4,3.5l-6.6-6.3c-1.4-1.4-2.8-2-4.1-1.9c-1.3,0.1-2.7,1-4.1,2.5c-0.8,0.8-1.7,1.9-2.8,3.4
			l-3-2.4c0.9-1.5,2.1-3,3.6-4.6c2.3-2.4,4.5-3.7,6.6-4s4.3,0.7,6.5,2.8L254.7,238.8z"/>
		<path fill="#34495E" d="M269.6,217.4l-2.6,4.1l-7.3-4.7c-1.9-1.2-3.5-1.6-4.9-1.1c-1.3,0.5-2.6,1.7-3.8,3.6
			c-0.9,1.4-1.8,3-2.6,4.9l-3.5-1.8c0.7-1.8,1.8-3.7,3.2-5.9c1.5-2.4,3-4,4.5-4.8c1.5-0.9,2.9-1.2,4.3-1.1c1.4,0.1,3,0.7,4.8,1.9
			L269.6,217.4z M254.8,222.7l8.1,5.2l-2.6,4.1l-8.1-5.2L254.8,222.7z"/>
		<path fill="#34495E" d="M279.7,193l-1.7,4.6l-8.1-3.1c-2.1-0.8-3.8-0.8-5-0.1c-1.2,0.7-2.2,2.2-3,4.3c-0.6,1.6-1.1,3.3-1.5,5.3
			l-3.8-1c0.3-1.9,1-4,1.9-6.5c1-2.6,2.1-4.5,3.4-5.7s2.6-1.8,4-2c1.4-0.2,3,0.1,5,0.8L279.7,193z M266.4,201.2l9,3.4l-1.7,4.6
			l-9-3.4L266.4,201.2z"/>
	</g>
	<g>
		<circle fill="#34495E" cx="271.3" cy="156.7" r="9.6"/>
		<circle fill="#34495E" cx="45.2" cy="156.7" r="9.6"/>
	</g>
</g>
</svg>
